<svg xmlns="http://www.w3.org/2000/svg" viewBox="0 0 56 56">
  <g fill="none" fill-rule="evenodd" transform="translate(-160 -80)">
    <g transform="rotate(90 68 148)">
      <path fill="#FA151D" fill-rule="nonzero" d="M28.2691798,48.9879776 C28.8591229,48.9314609 29.4169667,48.6953648 29.8661595,48.3120882 L41.924384,38.0670105 C42.7420716,37.4173668 43.1377718,36.3777534 42.95678,35.354622 C42.7757882,34.3314905 42.0468529,33.4873539 41.0549617,33.1522393 C40.0630705,32.8171248 38.9657743,33.0442615 38.1920764,33.7448471 L28,42.4069491 L17.8079236,33.7448471 C17.0342257,33.0442615 15.9369295,32.8171248 14.9450383,33.1522393 C13.9531471,33.4873539 13.2242118,34.3314905 13.04322,35.354622 C12.8622282,36.3777534 13.2579284,37.4173668 14.075616,38.0670105 L26.1338405,48.3120882 C26.7238375,48.8148563 27.4944145,49.0587636 28.2691798,48.9879776 L28.2691798,48.9879776 Z" transform="rotate(-90 28 41)"/>
    </g>
  </g>
</svg>
