<svg xmlns="http://www.w3.org/2000/svg" viewBox="0 0 132.22 26.73"><defs><style>.cls-1{fill:none;}.cls-2{fill:#fff;}</style></defs><g id="Layer_2" data-name="Layer 2"><g id="Layer_1-2" data-name="Layer 1"><path class="cls-1" d="M95.66,24c6,0,8.74-3.42,8.74-10.48S101.63,3,95.66,3,86.89,6.4,86.89,13.47,89.7,24,95.66,24Z"/><path class="cls-2" d="M95.66,26.58c7,0,11.59-5.17,11.59-13.11S102.62.36,95.66.36,84,5.52,84,13.47,88.67,26.58,95.66,26.58Zm0-23.6c6,0,8.74,3.42,8.74,10.49S101.63,24,95.66,24s-8.77-3.42-8.77-10.48S89.7,3,95.66,3Z"/><rect class="cls-1" width="132.22" height="26.73"/></g></g></svg>