<svg xmlns="http://www.w3.org/2000/svg" viewBox="0 0 132.22 26.73"><defs><style>.cls-1{fill:none;}.cls-2{fill:#fff;}</style></defs><g id="Layer_2" data-name="Layer 2"><g id="Layer_1-2" data-name="Layer 1"><path class="cls-1" d="M129,8.34c0-3.5-1.75-5.13-5.66-5.13h-8.1V13.5h8.1C127.24,13.5,129,12,129,8.34Z"/><path class="cls-2" d="M124.16,15.44v-.23c4.56-.11,7.57-2.73,7.57-7.06,0-4.72-3.58-7.41-8.82-7.41H112.54V26.2h2.69V15.82h3.69c3.31,0,4.64,1,5.89,3.23l4.1,7.15h3.16l-4.37-7.64A6,6,0,0,0,124.16,15.44Zm-.83-1.94h-8.1V3.21h8.1c3.91,0,5.66,1.63,5.66,5.13S127.24,13.5,123.33,13.5Z"/><rect class="cls-1" width="132.22" height="26.73"/></g></g></svg>