<svg xmlns="http://www.w3.org/2000/svg" viewBox="0 0 129.19 26.6"><defs><style>.cls-1{fill:#fff;}.cls-2{fill:none;}</style></defs><g id="Layer_2" data-name="Layer 2"><g id="Layer_1-2" data-name="Layer 1"><path class="cls-1" d="M66.79,8.83V8.34c0-4.15-2.89-8.17-9.5-8.17-6,0-9.09,3.19-9.09,6.87,0,4.1,2.74,5.93,6.73,6.77l4.41,1c3.84.83,5.13,1.9,5.13,4.75s-2,4.33-6.2,4.33c-5.66,0-7.52-2.2-7.52-5.74v-.42h-2.7v.57c0,4.37,3.08,8.1,10.15,8.1,6,0,9-3.12,9-7s-2.51-6-6.72-6.92l-4.41-1c-3.73-.87-5.13-1.71-5.13-4.6S53,2.67,57.25,2.67c5,0,6.84,2.25,6.84,5.74v.42Z"/><rect class="cls-2" width="129.19" height="26.6"/></g></g></svg>