<svg xmlns="http://www.w3.org/2000/svg" width="35.936" height="35.936" viewBox="0 0 35.936 35.936">
  <g id="Group_339" data-name="Group 339" transform="translate(-15820 7292.55)">
    <circle id="Ellipse_83" data-name="Ellipse 83" cx="17.968" cy="17.968" r="17.968" transform="translate(15820 -7292.55)" fill="none"/>
    <path id="Path_1108" data-name="Path 1108" d="M-590.753,2197.243s-1.559,4.9-1.686,5.3c-.046-.416-1.189-9.2-1.189-9.2-2.655,0-4.076,1.893-4.826,3.891,0,0-1.894,4.907-2.055,5.323-.012-.381-.288-5.265-.288-5.265a4.339,4.339,0,0,0-4.214-3.937l2.194,13.312c2.782-.012,4.283-1.894,5.068-3.891,0,0,1.674-4.33,1.743-4.526.012.185,1.2,8.417,1.2,8.417a5.351,5.351,0,0,0,5.1-3.695l3.914-9.617C-588.548,2193.353-590,2195.234-590.753,2197.243Z" transform="translate(16434.164 -9474.094)"/>
  </g>
</svg>
