<svg xmlns="http://www.w3.org/2000/svg" width="35.936" height="35.936" viewBox="0 0 35.936 35.936">
  <g id="Group_340" data-name="Group 340" transform="translate(-15768 7292.55)">
    <circle id="Ellipse_82" data-name="Ellipse 82" cx="17.968" cy="17.968" r="17.968" transform="translate(15768 -7292.55)" fill="none"/>
    <g id="Group_189" data-name="Group 189" transform="translate(15775.06 -7281.063)">
      <path id="Path_1109" data-name="Path 1109" d="M-775.63,2192.238l-4.092,12.808h-2.8l-2.211-8.284-2.211,8.284h-2.8l-4.091-12.808h3.177l2.287,8.793,2.16-8.793h2.948l2.16,8.793,2.287-8.793Z" transform="translate(793.826 -2192.238)"/>
      <path id="Path_1110" data-name="Path 1110" d="M-726.841,2223.211a2.085,2.085,0,0,1,2.135,2.135,2.084,2.084,0,0,1-2.135,2.135,2.084,2.084,0,0,1-2.135-2.135,2.085,2.085,0,0,1,2.135-2.135" transform="translate(747.174 -2214.52)"/>
    </g>
  </g>
</svg>
