<svg xmlns="http://www.w3.org/2000/svg" width="35.936" height="35.936" viewBox="0 0 35.936 35.936">
  <g id="Group_341" data-name="Group 341" transform="translate(-15716 7292.55)">
    <circle id="Ellipse_81" data-name="Ellipse 81" cx="17.968" cy="17.968" r="17.968" transform="translate(15716 -7292.55)" fill="none"/>
    <path id="Path_1105" data-name="Path 1105" d="M-965.083,2203.726a10.421,10.421,0,0,0,5.654,1.645,10.416,10.416,0,0,0,10.489-10.49v-.477a7.492,7.492,0,0,0,1.816-1.891,7.342,7.342,0,0,1-2.116.578,3.693,3.693,0,0,0,1.63-2.031,7.361,7.361,0,0,1-2.34.9,3.69,3.69,0,0,0-5.216-.156,3.69,3.69,0,0,0-1.064,3.524,10.459,10.459,0,0,1-7.6-3.867,3.693,3.693,0,0,0,1.142,4.936,3.674,3.674,0,0,1-1.684-.46v.045a3.693,3.693,0,0,0,2.969,3.6,3.716,3.716,0,0,1-.971.129,3.773,3.773,0,0,1-.693-.067,3.692,3.692,0,0,0,3.443,2.559,7.383,7.383,0,0,1-4.577,1.577A7.858,7.858,0,0,1-965.083,2203.726Z" transform="translate(16690.975 -9472.262)"/>
  </g>
</svg>
