<svg xmlns="http://www.w3.org/2000/svg" width="117" height="31" viewBox="0 0 117 31">
  <g id="Group_3620" data-name="Group 3620" transform="translate(5877 17951)">
    <path id="Path_2102" data-name="Path 2102" d="M15.5,1A14.5,14.5,0,0,0,5.247,25.753,14.405,14.405,0,0,0,15.5,30h86A14.5,14.5,0,0,0,111.753,5.247,14.405,14.405,0,0,0,101.5,1h-86m0-1h86a15.5,15.5,0,0,1,0,31h-86a15.5,15.5,0,0,1,0-31Z" transform="translate(-5877 -17951)" fill="#fff"/>
    <g id="Group_480" data-name="Group 480" transform="translate(-5860 -17943)">
      <path id="Path_499" data-name="Path 499" d="M333.629,150.035h-2.065v3.206h-1.1v-3.206h-2.065v3.206h-.978v.819h.978v6.9h-.978v.819h.978v3.206h2.065v-3.206h1.1v3.206h2.065v-3.206h1.009v-.819h-1.009v-6.9h1.009v-.819h-1.009Zm-2.065,10.924h-1.1v-6.9h1.1Z" transform="translate(-327.415 -150.035)" fill="#fff"/>
    </g>
    <g id="Group_481" data-name="Group 481" transform="translate(-5847.214 -17939.971)">
      <path id="Path_500" data-name="Path 500" d="M497.446,182.267V179.6h2.21v-.833h-2.21v-2.338h2.539V175.6H495.9v7.507h4.279v-.837Z" transform="translate(-480.421 -174.341)" fill="#fff"/>
      <path id="Path_501" data-name="Path 501" d="M541.418,168.927a3.849,3.849,0,0,1,1.429.375l.374-.676a3.967,3.967,0,0,0-1.932-.531c-1.81,0-3,.923-3,2.353a2.671,2.671,0,0,0,1.522,2.177,5.865,5.865,0,0,1,1.629,1.15,1.351,1.351,0,0,1-1.1,2.291,3.288,3.288,0,0,1-1.724-.669l-.582.735a4.522,4.522,0,0,0,2.4.853c1.873,0,2.975-1.209,2.975-2.4a2.343,2.343,0,0,0-.649-1.681,5.333,5.333,0,0,0-.86-.766c-.657-.506-1.365-.9-1.567-1.073a1.1,1.1,0,0,1-.53-.934C539.8,169.437,540.4,168.927,541.418,168.927Z" transform="translate(-515.491 -168.095)" fill="#fff"/>
      <path id="Path_502" data-name="Path 502" d="M626.654,175.476,623.777,183h1.315l.863-2.425h2.331l.9,2.425h1.607l-2.872-7.524Zm-.436,4.311.874-2.4.9,2.4Z" transform="translate(-586.85 -174.238)" fill="#fff"/>
      <path id="Path_503" data-name="Path 503" d="M677.134,178.547l.038-.01a1.874,1.874,0,0,0,1.611-1.8,1.941,1.941,0,0,0-1.369-1.86,4.977,4.977,0,0,0-1.666-.23,9.415,9.415,0,0,0-1.886.226v7.437h1.493v-3.428a1.21,1.21,0,0,1,.607.128,3.344,3.344,0,0,1,.818.963c.4.616,1.259,2.336,1.259,2.336h1.572s-.974-1.984-1.445-2.715A3.625,3.625,0,0,0,677.134,178.547Zm-1.441-.383h-.337v-2.748a2.62,2.62,0,0,1,.382-.036,1.392,1.392,0,1,1-.045,2.784Z" transform="translate(-628.534 -173.55)" fill="#fff"/>
      <path id="Path_504" data-name="Path 504" d="M719.9,174.683c-.238-.025-.556-.034-.775-.034a8.532,8.532,0,0,0-1.887.25v7.413h1.539v-3.079h.258a6.444,6.444,0,0,0,1.107-.058,2.283,2.283,0,0,0,2.13-2.256C722.271,175.64,721.406,174.824,719.9,174.683Zm-.685,3.762h-.438v-2.968a2.927,2.927,0,0,1,.438-.03,1.406,1.406,0,0,1,1.416,1.573A1.3,1.3,0,0,1,719.214,178.445Z" transform="translate(-664.632 -173.55)" fill="#fff"/>
      <path id="Path_505" data-name="Path 505" d="M403.639,170.1h2.343v7.662h1.534V170.1h2.343v-.918h-6.22Z" transform="translate(-403.639 -169.001)" fill="#fff"/>
      <path id="Path_506" data-name="Path 506" d="M451.473,175.476v3.029h-2.68v-3.029h-1.548V183h1.548v-3.659h2.68V183h1.548v-7.524Z" transform="translate(-439.93 -174.238)" fill="#fff"/>
      <path id="Path_507" data-name="Path 507" d="M585.177,175.476v3.029H582.5v-3.029h-1.549V183H582.5v-3.659h2.68V183h1.548v-7.524Z" transform="translate(-551.206 -174.238)" fill="#fff"/>
    </g>
    <path id="Path_2100" data-name="Path 2100" d="M-7025.026-17944.246l4.257,4.258-4.257,4.256" transform="translate(1244.666 4.746)" fill="none" stroke="#c9dbed" stroke-width="1"/>
    <path id="Path_2101" data-name="Path 2101" d="M-7025.026-17944.246l4.257,4.258-4.257,4.256" transform="translate(1248.923 4.746)" fill="none" stroke="#c9dbed" stroke-width="1"/>
  </g>
</svg>
