<svg xmlns="http://www.w3.org/2000/svg" width="78.666" height="16.699" viewBox="0 0 78.666 16.699">
  <g id="Group_624" data-name="Group 624" transform="translate(0)">
    <g id="Group_480" data-name="Group 480">
      <path id="Path_499" data-name="Path 499" d="M334.356,150.035h-2.307v3.581h-1.234v-3.581h-2.307v3.581h-1.092v.915h1.092v7.706h-1.092v.915h1.092v3.581h2.307v-3.581h1.234v3.581h2.307v-3.581h1.127v-.915h-1.127v-7.706h1.127v-.915h-1.127Zm-2.307,12.2h-1.234v-7.706h1.234Z" transform="translate(-327.415 -150.035)" fill="#001241"/>
    </g>
    <g id="Group_481" data-name="Group 481" transform="translate(14.283 3.384)">
      <path id="Path_500" data-name="Path 500" d="M497.627,183.047v-2.974H500.1v-.931h-2.469v-2.612h2.836V175.6H495.9v8.385h4.779v-.935Z" transform="translate(-478.61 -174.194)" fill="#001241"/>
      <path id="Path_501" data-name="Path 501" d="M541.814,169.025a4.3,4.3,0,0,1,1.6.419l.418-.755a4.43,4.43,0,0,0-2.158-.593c-2.022,0-3.348,1.031-3.348,2.629a2.984,2.984,0,0,0,1.7,2.432,6.552,6.552,0,0,1,1.82,1.284A1.509,1.509,0,0,1,540.613,177a3.673,3.673,0,0,1-1.926-.747l-.651.821a5.051,5.051,0,0,0,2.676.953c2.092,0,3.323-1.351,3.323-2.679a2.618,2.618,0,0,0-.725-1.878,5.952,5.952,0,0,0-.961-.856c-.733-.565-1.524-1-1.75-1.2a1.23,1.23,0,0,1-.592-1.043C540.007,169.595,540.678,169.025,541.814,169.025Z" transform="translate(-512.853 -168.095)" fill="#001241"/>
      <path id="Path_502" data-name="Path 502" d="M626.991,175.476l-3.214,8.4h1.469l.964-2.709h2.6l1,2.709h1.795l-3.208-8.4Zm-.487,4.816.976-2.68,1.007,2.68Z" transform="translate(-582.528 -174.093)" fill="#001241"/>
      <path id="Path_503" data-name="Path 503" d="M677.517,179l.043-.011a2.094,2.094,0,0,0,1.8-2.008,2.168,2.168,0,0,0-1.529-2.078,5.56,5.56,0,0,0-1.861-.257,10.513,10.513,0,0,0-2.107.252v8.308h1.668V179.38a1.35,1.35,0,0,1,.678.143,3.735,3.735,0,0,1,.914,1.076c.445.689,1.406,2.609,1.406,2.609h1.756s-1.088-2.217-1.614-3.033A4.05,4.05,0,0,0,677.517,179Zm-1.609-.428h-.377v-3.07a2.92,2.92,0,0,1,.427-.041,1.555,1.555,0,1,1-.05,3.11Z" transform="translate(-623.23 -173.421)" fill="#001241"/>
      <path id="Path_504" data-name="Path 504" d="M720.21,174.687c-.266-.028-.621-.038-.865-.038a9.531,9.531,0,0,0-2.108.28v8.28h1.719v-3.439h.289a7.2,7.2,0,0,0,1.236-.064,2.55,2.55,0,0,0,2.379-2.52C722.86,175.755,721.894,174.845,720.21,174.687Zm-.765,4.2h-.489v-3.315a3.275,3.275,0,0,1,.489-.034,1.57,1.57,0,0,1,1.582,1.757A1.449,1.449,0,0,1,719.445,178.89Z" transform="translate(-658.476 -173.421)" fill="#001241"/>
      <path id="Path_505" data-name="Path 505" d="M403.639,170.208h2.617v8.559h1.713v-8.559h2.617v-1.025h-6.948Z" transform="translate(-403.639 -168.979)" fill="#001241"/>
      <path id="Path_506" data-name="Path 506" d="M451.968,175.476v3.384h-2.993v-3.384h-1.73v8.4h1.729v-4.088h2.993v4.088H453.7v-8.4Z" transform="translate(-439.074 -174.093)" fill="#001241"/>
      <path id="Path_507" data-name="Path 507" d="M585.672,175.476v3.384h-2.993v-3.384h-1.73v8.4h1.73v-4.088h2.993v4.088H587.4v-8.4Z" transform="translate(-547.726 -174.093)" fill="#001241"/>
    </g>
  </g>
</svg>
