<svg id="그룹_871" data-name="그룹 871" xmlns="http://www.w3.org/2000/svg" width="75.821" height="14.597" viewBox="0 0 75.821 14.597">
  <g id="그룹_791" data-name="그룹 791" transform="translate(46.737)">
    <path id="패스_704" data-name="패스 704" d="M323.041,326.741v3.91h-2.849v1.689h2.849v5.287h2.293V326.741Zm-10.227.236v1.706h5.137a4.877,4.877,0,0,1-1.751,3.341,13.849,13.849,0,0,1-4.028,2.169l-.279.1,1.524,1.387.106-.036a11.453,11.453,0,0,0,5.034-2.948,8.485,8.485,0,0,0,1.826-5.715Zm2.042,9.309v4.988h10.478v-1.742h-8.147v-3.246Z" transform="translate(-311.894 -326.723)" fill="#4b5151"/>
    <path id="패스_705" data-name="패스 705" d="M371.6,326.684v2.046h-3.225v1.651H371.6v3.531H373.9v-7.228Zm-7.593.072V327.8a5.09,5.09,0,0,1-.22,1.571,4.349,4.349,0,0,1-.791,1.366,5.844,5.844,0,0,1-1.271,1.224,6.175,6.175,0,0,1-1.6.783l-.288.094,1.364,1.2s2.9-.918,3.985-2.941a7.961,7.961,0,0,0,3.87,2.7l1.439-1.227-.322-.085a5.008,5.008,0,0,1-1.37-.584,5.956,5.956,0,0,1-1.249-1.063,4.135,4.135,0,0,1-.891-1.375,4.767,4.767,0,0,1-.266-1.663v-1.042Zm-.745,7.859v1.705h8.3v.7h-8.2v4.258h10.517v-1.723h-8.242v-.811h8.242v-4.133Z" transform="translate(-344.811 -326.684)" fill="#4b5151"/>
  </g>
  <g id="그룹_792" data-name="그룹 792" transform="translate(0 0.323)">
    <path id="패스_706" data-name="패스 706" d="M163.784,327.716v1.816h1.983v5.686h-2.135v1.8h5.093V340.1h-5.953v1.818h14.047V340.1h-5.783v-3.085h4.884v-1.8H173.8v-5.686h1.965v-1.816Zm7.746,1.816v5.686h-3.469v-5.686Z" transform="translate(-162.772 -327.716)" fill="#4b5151"/>
    <path id="패스_707" data-name="패스 707" d="M263.806,327.716v1.816h8.986v2.8h-8.986v1.779h8.986v3.573h2.274v-9.968Zm3.4,8.246v4.122h-4.6v1.836H276.65v-1.836H269.5v-4.122Z" transform="translate(-231.315 -327.716)" fill="#4b5151"/>
  </g>
  <path id="패스_708" data-name="패스 708" d="M217.4,334.831a9.882,9.882,0,0,0,2.367-2.242,10.06,10.06,0,0,0,2.367,2.242,20.717,20.717,0,0,0,3.279,1.561l1.376-1.52a19.379,19.379,0,0,1-2.364-.988A6.079,6.079,0,0,1,221.445,331a4.59,4.59,0,0,1-.448-1.84v-1.927h-2.453v1.927A4.585,4.585,0,0,1,218.1,331a6.086,6.086,0,0,1-2.984,2.887,19.4,19.4,0,0,1-2.364.988l1.377,1.52A19,19,0,0,0,217.4,334.831Zm-4.716,6.754h14.046v-1.817H212.688Z" transform="translate(-197.044 -327.058)" fill="#4b5151"/>
</svg>
