<svg xmlns="http://www.w3.org/2000/svg" width="77" height="35" viewBox="0 0 77 35">
  <g id="그룹_400" data-name="그룹 400" transform="translate(-486 -290)">
    <g id="그룹_16" data-name="그룹 16" transform="translate(486 290)">
      <g id="그룹_12" data-name="그룹 12" transform="translate(1.021)">
        <g id="그룹_10" data-name="그룹 10" transform="translate(35.233)">
          <path id="패스_14" data-name="패스 14" d="M287.183,268.218a5.354,5.354,0,0,1-5.212,3.675,5.487,5.487,0,1,1,5.3-7.065c.164.57-.043.634-.379.708a1.887,1.887,0,0,1-1.193-.23,3.971,3.971,0,0,1-.848-.938,3.4,3.4,0,0,0-2.88-1.555,3.591,3.591,0,0,0,0,7.182A3.517,3.517,0,0,0,285,268.22a1.938,1.938,0,0,1,1.191-.842c.829-.188,1.03.092,1.03.092S287.428,267.56,287.183,268.218Z" transform="translate(-276.463 -260.92)" fill="#fff"/>
        </g>
        <path id="패스_15" data-name="패스 15" d="M209.343,262.813a3.592,3.592,0,1,1-3.512,3.592A3.556,3.556,0,0,1,209.343,262.813Zm0-1.893a5.487,5.487,0,1,0,5.487,5.485A5.41,5.41,0,0,0,209.343,260.92Z" transform="translate(-191.776 -260.92)" fill="#fff"/>
        <path id="패스_16" data-name="패스 16" d="M319.456,262.813a3.592,3.592,0,1,1-3.511,3.592A3.557,3.557,0,0,1,319.456,262.813Zm0-1.893a5.487,5.487,0,1,0,5.487,5.485A5.414,5.414,0,0,0,319.456,260.92Z" transform="translate(-266.775 -260.92)" fill="#fff"/>
        <g id="그룹_11" data-name="그룹 11" transform="translate(23.936 0.006)">
          <path id="패스_17" data-name="패스 17" d="M248.7,267.414c.629.028.794.335.571.89a3.418,3.418,0,0,1-3.019,1.786,3.649,3.649,0,0,1-2.819-1.374,2.185,2.185,0,0,0-1.973-.484c-.341.127-.182.646-.04.923a5.418,5.418,0,0,0,4.73,2.75,5.474,5.474,0,0,0,4.794-2.613c1.04-1.682.591-3.717-1.777-3.748l-5.361-.063c-.783-.011-.861-.5-.633-.974a3.436,3.436,0,0,1,3.145-1.759,3.643,3.643,0,0,1,2.651,1.306,2.119,2.119,0,0,0,2,.412c.232-.115.218-.432.007-.835a5.36,5.36,0,0,0-4.743-2.692,5.481,5.481,0,0,0-4.67,2.5c-.939,1.457-.887,3.878,2.431,3.916Z" transform="translate(-241.037 -260.938)" fill="#fff"/>
        </g>
        <path id="패스_18" data-name="패스 18" d="M171.466,260.92a5.406,5.406,0,0,0-5.483,5.485v7.267a2.811,2.811,0,0,0,.364,1.638,1.682,1.682,0,0,0,1.253.819c.348-.034.367-.465.367-.465v-4.99a5.536,5.536,0,0,0,3.5,1.219,5.487,5.487,0,1,0,0-10.973Zm0,9.056a3.583,3.583,0,1,1,3.523-3.584A3.553,3.553,0,0,1,171.468,269.976Z" transform="translate(-165.974 -260.92)" fill="#fff"/>
      </g>
      <g id="그룹_15" data-name="그룹 15" transform="translate(0 20.148)">
        <g id="그룹_13" data-name="그룹 13" transform="translate(47.408)">
          <path id="패스_19" data-name="패스 19" d="M323.235,326.741v3.978h-2.9v1.718h2.9v5.379h2.333V326.741Zm-10.405.24v1.735h5.227a4.962,4.962,0,0,1-1.781,3.4,14.091,14.091,0,0,1-4.1,2.207l-.283.1,1.55,1.411.108-.036a11.653,11.653,0,0,0,5.122-3,8.633,8.633,0,0,0,1.858-5.815Zm2.078,9.471v5.075h10.661v-1.772H317.28v-3.3Z" transform="translate(-311.894 -326.723)" fill="#fff"/>
          <path id="패스_20" data-name="패스 20" d="M371.806,326.684v2.081h-3.281v1.68h3.281v3.592h2.334v-7.354Zm-7.726.073v1.061a5.178,5.178,0,0,1-.224,1.6,4.425,4.425,0,0,1-.8,1.389,5.944,5.944,0,0,1-1.293,1.245,6.28,6.28,0,0,1-1.629.8l-.293.1,1.388,1.223s2.955-.934,4.055-2.992a8.1,8.1,0,0,0,3.938,2.747l1.464-1.249-.328-.086a5.1,5.1,0,0,1-1.394-.594,6.06,6.06,0,0,1-1.271-1.082,4.207,4.207,0,0,1-.907-1.4,4.851,4.851,0,0,1-.271-1.692v-1.061Zm-.758,8v1.735h8.444v.716H363.42v4.332h10.7v-1.753h-8.386v-.825h8.386v-4.205Z" transform="translate(-344.549 -326.684)" fill="#fff"/>
        </g>
        <g id="그룹_14" data-name="그룹 14" transform="translate(0 0.329)">
          <path id="패스_21" data-name="패스 21" d="M163.8,327.716v1.848h2.018v5.785h-2.173v1.829h5.182v3.139h-6.057v1.85h14.292v-1.85h-5.884v-3.139h4.969v-1.829H174v-5.785h2v-1.848Zm7.881,1.848v5.785h-3.529v-5.785Z" transform="translate(-162.772 -327.716)" fill="#fff"/>
          <path id="패스_22" data-name="패스 22" d="M263.827,327.716v1.848h9.143v2.849h-9.143v1.81h9.143v3.636h2.314V327.716Zm3.455,8.389V340.3H262.6v1.868h14.291V340.3h-7.278v-4.194Z" transform="translate(-230.769 -327.716)" fill="#fff"/>
        </g>
        <path id="패스_23" data-name="패스 23" d="M217.486,334.963a10.053,10.053,0,0,0,2.408-2.281,10.237,10.237,0,0,0,2.408,2.281,21.073,21.073,0,0,0,3.336,1.588l1.4-1.546A19.725,19.725,0,0,1,224.634,334a6.185,6.185,0,0,1-3.036-2.938,4.67,4.67,0,0,1-.456-1.872v-1.961h-2.5v1.961a4.664,4.664,0,0,1-.455,1.872A6.192,6.192,0,0,1,215.154,334a19.748,19.748,0,0,1-2.405,1.005l1.4,1.546A19.33,19.33,0,0,0,217.486,334.963Zm-4.8,6.872h14.291v-1.849H212.688Z" transform="translate(-196.807 -327.055)" fill="#fff"/>
      </g>
    </g>
  </g>
</svg>
