<svg xmlns="http://www.w3.org/2000/svg" width="16" height="16" viewBox="0 0 16 16">
  <path id="패스_1800" data-name="패스 1800" d="M8,16a8.063,8.063,0,0,1-1.612-.163,7.957,7.957,0,0,1-2.861-1.2A7.991,7.991,0,0,1,1.367,3.527,8.019,8.019,0,0,1,4.886.629a7.968,7.968,0,0,1,1.5-.466,8.08,8.08,0,0,1,3.225,0,7.957,7.957,0,0,1,2.861,1.2,8.049,8.049,0,0,1,2.161,2.161,7.989,7.989,0,0,1,0,8.946,8.022,8.022,0,0,1-3.52,2.9,7.968,7.968,0,0,1-1.5.466A8.064,8.064,0,0,1,8,16ZM8,4.283A3.717,3.717,0,1,0,11.716,8,3.72,3.72,0,0,0,8,4.283Z" fill="#fff"/>
</svg>
