<svg xmlns="http://www.w3.org/2000/svg" xmlns:xlink="http://www.w3.org/1999/xlink" width="80.5" height="149" viewBox="0 0 80.5 149">
  <defs>
    <filter id="Rectangle_5419" x="0" y="0" width="79" height="149" filterUnits="userSpaceOnUse">
      <feOffset dx="2" input="SourceAlpha"/>
      <feGaussianBlur stdDeviation="1.5" result="blur"/>
      <feFlood flood-opacity="0.102"/>
      <feComposite operator="in" in2="blur"/>
      <feComposite in="SourceGraphic"/>
    </filter>
  </defs>
  <g id="Group_3618" data-name="Group 3618" transform="translate(5449.5 18050.5)">
    <path id="Polygon_34" data-name="Polygon 34" d="M8,0l8,12.5H0Z" transform="translate(-5369 -17906) rotate(180)" fill="#bfbfbf"/>
    <g transform="matrix(1, 0, 0, 1, -5449.5, -18050.5)" filter="url(#Rectangle_5419)">
      <rect id="Rectangle_5419-2" data-name="Rectangle 5419" width="70" height="140" transform="translate(2.5 4.5)" fill="#00b8ff"/>
    </g>
    <path id="Path_2095" data-name="Path 2095" d="M-12.512-11.28h1.827V-.637H-12.15l-5.706-7.427V-.637h-1.812V-11.28h1.449l5.706,7.412ZM-2.08-3.989H-7.108a2.3,2.3,0,0,0,.619,1.525,2.117,2.117,0,0,0,1.51.5,3.56,3.56,0,0,0,2.234-.785l.543,1.3a3.962,3.962,0,0,1-1.291.679,4.958,4.958,0,0,1-1.562.257A3.914,3.914,0,0,1-7.915-1.543,3.748,3.748,0,0,1-8.964-4.351a4.308,4.308,0,0,1,.453-2.008A3.293,3.293,0,0,1-7.236-7.717,3.613,3.613,0,0,1-5.371-8.2a3.076,3.076,0,0,1,2.408.981,3.893,3.893,0,0,1,.883,2.7ZM-5.326-6.872a1.6,1.6,0,0,0-1.215.483A2.349,2.349,0,0,0-7.108-5H-3.7a2.152,2.152,0,0,0-.453-1.4A1.494,1.494,0,0,0-5.326-6.872ZM9.3-8.019h1.842L8.245-.637H6.6L4.788-5.392,3.022-.637H1.392L-1.522-8.019H.41L2.3-2.887,4.184-8.019H5.543L7.43-2.856Zm5.57,7.5a6.385,6.385,0,0,1-1.8-.242,4.082,4.082,0,0,1-1.4-.694L12.2-2.766a4.461,4.461,0,0,0,2.7.86,1.888,1.888,0,0,0,.989-.211.672.672,0,0,0,.34-.6A.611.611,0,0,0,16-3.234a2.409,2.409,0,0,0-.838-.332l-1.208-.272a2.969,2.969,0,0,1-1.525-.74,1.827,1.827,0,0,1-.5-1.328,1.966,1.966,0,0,1,.385-1.2,2.486,2.486,0,0,1,1.072-.808A4.108,4.108,0,0,1,14.978-8.2a4.811,4.811,0,0,1,1.517.242,4.209,4.209,0,0,1,1.291.679L17.258-6a3.9,3.9,0,0,0-2.295-.83A1.759,1.759,0,0,0,14-6.6a.716.716,0,0,0-.347.634.64.64,0,0,0,.219.5,1.552,1.552,0,0,0,.7.3l1.253.287a3.188,3.188,0,0,1,1.615.762,1.862,1.862,0,0,1,.513,1.366,1.913,1.913,0,0,1-.83,1.63A3.75,3.75,0,0,1,14.872-.516ZM-11.606,14.459H-13.72l-1.827-3.4a1.549,1.549,0,0,0-.634-.679,2.05,2.05,0,0,0-.951-.2h-1.479v4.272h-1.917V3.816h4.71a4.129,4.129,0,0,1,2.755.808,2.9,2.9,0,0,1,.944,2.332,2.967,2.967,0,0,1-.687,2.015,3.3,3.3,0,0,1-1.94,1.034A2.2,2.2,0,0,1-13.388,11.2ZM-16.09,8.692a2.557,2.557,0,0,0,1.615-.415A1.543,1.543,0,0,0-13.961,7a1.517,1.517,0,0,0-.513-1.276,2.629,2.629,0,0,0-1.615-.4h-2.536V8.692Zm9.254,5.888a4.062,4.062,0,0,1-1.985-.468,3.238,3.238,0,0,1-1.321-1.344,4.26,4.26,0,0,1-.468-2.038,4.215,4.215,0,0,1,.468-2.03A3.249,3.249,0,0,1-8.821,7.364,4.062,4.062,0,0,1-6.836,6.9a4.062,4.062,0,0,1,1.985.468A3.2,3.2,0,0,1-3.537,8.7a4.272,4.272,0,0,1,.46,2.03,4.317,4.317,0,0,1-.46,2.038,3.191,3.191,0,0,1-1.313,1.344A4.062,4.062,0,0,1-6.836,14.58Zm-.015-1.464a1.692,1.692,0,0,0,1.4-.6,2.805,2.805,0,0,0,.483-1.781,2.811,2.811,0,0,0-.483-1.774,1.666,1.666,0,0,0-1.389-.611,1.687,1.687,0,0,0-1.4.611,2.78,2.78,0,0,0-.491,1.774,2.805,2.805,0,0,0,.483,1.781A1.675,1.675,0,0,0-6.851,13.115Zm8.7,1.464a4.062,4.062,0,0,1-1.985-.468,3.238,3.238,0,0,1-1.321-1.344A4.26,4.26,0,0,1-1.93,10.73,4.215,4.215,0,0,1-1.462,8.7,3.249,3.249,0,0,1-.141,7.364,4.062,4.062,0,0,1,1.845,6.9a4.062,4.062,0,0,1,1.985.468A3.2,3.2,0,0,1,5.143,8.7a4.272,4.272,0,0,1,.46,2.03,4.317,4.317,0,0,1-.46,2.038A3.191,3.191,0,0,1,3.83,14.112,4.062,4.062,0,0,1,1.845,14.58Zm-.015-1.464a1.692,1.692,0,0,0,1.4-.6,2.805,2.805,0,0,0,.483-1.781,2.811,2.811,0,0,0-.483-1.774,1.666,1.666,0,0,0-1.389-.611,1.687,1.687,0,0,0-1.4.611A2.78,2.78,0,0,0-.043,10.73a2.805,2.805,0,0,0,.483,1.781A1.675,1.675,0,0,0,1.829,13.115Zm14.1-6.22a2.291,2.291,0,0,1,1.872.747A3.536,3.536,0,0,1,18.42,9.93v4.529H16.533V10.006a2.081,2.081,0,0,0-.287-1.23,1.073,1.073,0,0,0-.921-.385,1.441,1.441,0,0,0-1.178.513,2.2,2.2,0,0,0-.423,1.434v4.121H11.838V10.006a2.125,2.125,0,0,0-.279-1.23,1.069,1.069,0,0,0-.928-.385A1.424,1.424,0,0,0,9.468,8.9a2.2,2.2,0,0,0-.423,1.434v4.121H7.158V7.077H9V8.119a2.207,2.207,0,0,1,.921-.913A2.844,2.844,0,0,1,11.265,6.9a2.147,2.147,0,0,1,2.219,1.389,2.521,2.521,0,0,1,1-1.019A2.875,2.875,0,0,1,15.929,6.9Z" transform="translate(-5410.834 -17950.67)" fill="#fff"/>
    <g id="Rectangle_5420" data-name="Rectangle 5420" transform="translate(-5422.232 -17991.973)" fill="none" stroke="#fff" stroke-linecap="round" stroke-width="1.5">
      <rect width="8.759" height="5.574" rx="1" stroke="none"/>
      <rect x="0.75" y="0.75" width="7.259" height="4.074" rx="0.25" fill="none"/>
    </g>
    <line id="Line_910" data-name="Line 910" x2="17.097" transform="translate(-5421.413 -17983.213)" fill="none" stroke="#fff" stroke-linecap="round" stroke-width="1.5"/>
    <line id="Line_911" data-name="Line 911" x2="17.097" transform="translate(-5421.413 -17980.027)" fill="none" stroke="#fff" stroke-linecap="round" stroke-width="1.5"/>
    <line id="Line_912" data-name="Line 912" x2="6.047" transform="translate(-5410.363 -17991.176)" fill="none" stroke="#fff" stroke-linecap="round" stroke-width="1.5"/>
    <line id="Line_913" data-name="Line 913" x2="6.047" transform="translate(-5410.363 -17987.195)" fill="none" stroke="#fff" stroke-linecap="round" stroke-width="1.5"/>
    <g id="Rectangle_5421" data-name="Rectangle 5421" transform="translate(-5426 -17997)" fill="none" stroke="#fff" stroke-width="1.5">
      <path d="M1,0H25a1,1,0,0,1,1,1V22a0,0,0,0,1,0,0H1a1,1,0,0,1-1-1V1A1,1,0,0,1,1,0Z" stroke="none"/>
      <path d="M1,.75H25a.25.25,0,0,1,.25.25V20.5a.75.75,0,0,1-.75.75H1A.25.25,0,0,1,.75,21V1A.25.25,0,0,1,1,.75Z" fill="none"/>
    </g>
    <g id="Rectangle_5422" data-name="Rectangle 5422" transform="translate(-5401.5 -17988)" fill="none" stroke="#fff" stroke-width="1.5">
      <path d="M0,0H3.645a1,1,0,0,1,1,1v9.007a3,3,0,0,1-3,3H0a0,0,0,0,1,0,0V0A0,0,0,0,1,0,0Z" stroke="none"/>
      <path d="M1.5.75H3.645A.25.25,0,0,1,3.9,1v9.007a2.25,2.25,0,0,1-2.25,2.25H1.5a.75.75,0,0,1-.75-.75V1.5A.75.75,0,0,1,1.5.75Z" fill="none"/>
    </g>
  </g>
</svg>
