<svg id="texture" xmlns="http://www.w3.org/2000/svg" xmlns:xlink="http://www.w3.org/1999/xlink" viewBox="0 0 600 1066"><defs><style>.cls-1,.cls-3,.cls-5,.cls-7{fill:none;}.cls-2{clip-path:url(#clip-path);}.cls-3,.cls-5{stroke:#ff4d34;}.cls-3,.cls-5,.cls-7{stroke-linecap:square;stroke-miterlimit:10;}.cls-3,.cls-7{stroke-width:0.75px;}.cls-4{clip-path:url(#clip-path-2);}.cls-5{stroke-width:0.5px;}.cls-6{opacity:0.6;}.cls-7{stroke:#fff;}</style><clipPath id="clip-path"><rect class="cls-1" x="2" width="598" height="1065.6"/></clipPath><clipPath id="clip-path-2"><circle class="cls-1" cx="559.5" cy="1360.1" r="380.5"/></clipPath></defs><g class="cls-2"><line class="cls-3" x1="354.95" y1="198.82" x2="339.23" y2="213.51"/><line class="cls-3" x1="338.66" y1="181.84" x2="324.74" y2="198.27"/><path class="cls-3" d="M320.37,164q-5.87,9-11.83,18"/><path class="cls-3" d="M274.18,124.32c-1.5,7.06-3.18,14.18-4.9,21.21"/><path class="cls-3" d="M298.37,144.32q-3.72,10.17-7.67,20.27"/><path class="cls-3" d="M249.24,105.19c-1.13,7.13-2.47,14.36-3.83,21.44"/><path class="cls-3" d="M221.53,86.8c0,7.25-.33,14.63-.66,21.86"/><path class="cls-3" d="M191.28,69.32q.76,5.48,1.44,10.88c.44,3.63.82,7.3,1.19,10.92"/><path class="cls-3" d="M158.61,53.07c2.08,7.15,4.08,14.16,5.88,21.27"/><path class="cls-3" d="M123.67,38.35l2.34,5,2.26,5.1q2.23,5.1,4.39,10.15"/><polyline class="cls-3" points="86.7 25.3 92.74 34.73 95.69 39.43 98.57 44.2"/><path class="cls-3" d="M47.93,14.09c5,5.61,9.77,11.39,14.48,17.11"/><path class="cls-3" d="M7.65,4.7c2.85,2.44,5.65,5,8.45,7.51s5.57,5,8.3,7.55"/><line class="cls-3" x1="370.61" y1="216" x2="353.3" y2="228.8"/><line class="cls-3" x1="387.25" y1="235.29" x2="368.58" y2="246.06"/><path class="cls-3" d="M424.84,282.64q-10.63,2.16-21.29,4.5"/><path class="cls-3" d="M405.67,258.1q-10.32,3.36-20.57,6.79"/><path class="cls-3" d="M443.8,307.36q-10.74,2-21.4,4"/><path class="cls-3" d="M462.84,334.25q-10.95.71-21.79,1.55"/><path class="cls-3" d="M482,363.12c-7.34-.41-14.63-.78-21.91-1.06"/><path class="cls-3" d="M501.09,394c-7.3-1.31-14.49-2.59-21.75-3.73"/><path class="cls-3" d="M519.68,426.83c-7.12-2.23-14.13-4.42-21.22-6.47"/><path class="cls-3" d="M537.47,461.67q-10.23-4.74-20.32-9.22"/><path class="cls-3" d="M554,498.46c-3.1-2.07-6.32-4.07-9.49-6l-9.5-5.87"/><path class="cls-3" d="M568.87,537.09c-2.86-2.48-5.65-5-8.54-7.37l-8.68-7.15"/><path class="cls-3" d="M581.7,577.39l-7.45-8.55c-1.25-1.41-2.45-2.83-3.74-4.22l-3.83-4.15"/><path class="cls-3" d="M592.05,619.15c-1.93-3.25-4.08-6.42-6.13-9.59l-6.2-9.45"/><polyline class="cls-3" points="599.52 662.09 595.01 651.63 590.19 641.33"/><path class="cls-3" d="M603.83,705.84c-.92-3.71-2-7.39-2.91-11.06s-1.91-7.34-3.06-11"/><line class="cls-3" x1="387.03" y1="167.54" x2="371.3" y2="182.22"/><line class="cls-3" x1="370.73" y1="150.55" x2="356.81" y2="166.98"/><path class="cls-3" d="M352.45,132.68q-5.88,9-11.83,18"/><path class="cls-3" d="M306.25,93c-1.5,7.07-3.17,14.18-4.89,21.21"/><path class="cls-3" d="M330.44,113c-2.48,6.78-5,13.52-7.67,20.27"/><path class="cls-3" d="M281.31,73.91c-1.12,7.12-2.47,14.35-3.83,21.43"/><path class="cls-3" d="M253.61,55.51c-.05,7.25-.33,14.63-.67,21.86"/><path class="cls-3" d="M223.35,38q.77,5.47,1.44,10.89c.44,3.63.82,7.3,1.19,10.92"/><path class="cls-3" d="M190.68,21.78c2.08,7.15,4.08,14.17,5.88,21.27"/><path class="cls-3" d="M155.74,7.06l2.34,5,2.26,5.09q2.25,5.1,4.39,10.16"/><polyline class="cls-3" points="118.77 -5.99 124.81 3.44 127.76 8.14 130.64 12.91"/><path class="cls-3" d="M80-17.19c5,5.6,9.76,11.38,14.48,17.1"/><line class="cls-3" x1="402.68" y1="184.71" x2="385.37" y2="197.52"/><line class="cls-3" x1="419.32" y1="204" x2="400.65" y2="214.78"/><path class="cls-3" d="M456.92,251.35q-10.65,2.16-21.29,4.5"/><path class="cls-3" d="M437.74,226.82q-10.32,3.35-20.57,6.78"/><path class="cls-3" d="M475.88,276.07q-10.75,2-21.41,4"/><path class="cls-3" d="M494.92,303q-10.95.69-21.8,1.54"/><path class="cls-3" d="M514.11,331.83c-7.35-.41-14.64-.77-21.92-1.06"/><path class="cls-3" d="M533.16,362.68c-7.29-1.31-14.48-2.58-21.74-3.73"/><path class="cls-3" d="M551.76,395.54c-7.13-2.23-14.14-4.42-21.23-6.46"/><path class="cls-3" d="M569.54,430.38q-10.23-4.74-20.32-9.21"/><path class="cls-3" d="M586.06,467.17c-3.1-2.07-6.31-4.06-9.49-6l-9.49-5.88"/><path class="cls-3" d="M600.94,505.8c-2.86-2.48-5.64-5-8.53-7.37l-8.69-7.15"/><path class="cls-3" d="M613.78,546.1l-7.46-8.55c-1.25-1.41-2.45-2.83-3.73-4.22l-3.83-4.15"/><line class="cls-3" x1="419.1" y1="136.25" x2="403.37" y2="150.93"/><line class="cls-3" x1="402.8" y1="119.26" x2="388.88" y2="135.69"/><path class="cls-3" d="M384.52,101.39q-5.88,9-11.83,18"/><path class="cls-3" d="M338.32,61.74c-1.5,7.07-3.17,14.18-4.89,21.21"/><path class="cls-3" d="M362.51,81.75c-2.47,6.78-5,13.52-7.66,20.27"/><path class="cls-3" d="M313.39,42.62c-1.13,7.12-2.48,14.35-3.84,21.44"/><path class="cls-3" d="M285.68,24.22c-.05,7.26-.33,14.64-.67,21.86"/><path class="cls-3" d="M255.42,6.75q.77,5.46,1.44,10.88c.45,3.63.82,7.3,1.19,10.92"/><path class="cls-3" d="M222.75-9.51c2.08,7.16,4.08,14.17,5.88,21.28"/><line class="cls-3" x1="434.75" y1="153.43" x2="417.44" y2="166.23"/><line class="cls-3" x1="451.39" y1="172.72" x2="432.72" y2="183.49"/><path class="cls-3" d="M489,220.06q-10.64,2.17-21.29,4.5"/><path class="cls-3" d="M469.81,195.53c-6.88,2.24-13.72,4.49-20.57,6.79"/><path class="cls-3" d="M508,244.78q-10.74,2-21.4,4"/><path class="cls-3" d="M527,271.68q-10.95.7-21.8,1.55"/><path class="cls-3" d="M546.18,300.54c-7.35-.41-14.64-.77-21.92-1.05"/><path class="cls-3" d="M565.23,331.4c-7.29-1.31-14.48-2.59-21.74-3.73"/><path class="cls-3" d="M583.83,364.26c-7.12-2.24-14.14-4.42-21.22-6.47"/><path class="cls-3" d="M601.61,399.09q-10.22-4.72-20.31-9.21"/><path class="cls-3" d="M618.14,435.88c-3.11-2.07-6.32-4.06-9.49-6l-9.5-5.88"/><line class="cls-3" x1="451.17" y1="104.96" x2="435.45" y2="119.65"/><line class="cls-3" x1="434.88" y1="87.98" x2="420.96" y2="104.41"/><path class="cls-3" d="M416.59,70.11q-5.88,9-11.83,18"/><path class="cls-3" d="M370.4,30.45c-1.5,7.07-3.18,14.19-4.9,21.22"/><path class="cls-3" d="M394.58,50.46q-3.7,10.17-7.66,20.27"/><path class="cls-3" d="M345.46,11.33c-1.13,7.13-2.47,14.36-3.83,21.44"/><path class="cls-3" d="M317.75-7.06c0,7.25-.33,14.63-.67,21.86"/><line class="cls-3" x1="466.82" y1="122.14" x2="449.52" y2="134.94"/><line class="cls-3" x1="483.47" y1="141.43" x2="464.8" y2="152.2"/><path class="cls-3" d="M521.06,188.78q-10.63,2.16-21.29,4.49"/><path class="cls-3" d="M501.88,164.24q-10.31,3.36-20.56,6.79"/><path class="cls-3" d="M540,213.5q-10.74,2-21.4,4"/><path class="cls-3" d="M559.06,240.39q-10.95.71-21.79,1.55"/><path class="cls-3" d="M578.25,269.26c-7.34-.41-14.63-.78-21.91-1.06"/><path class="cls-3" d="M597.31,300.11c-7.3-1.31-14.49-2.59-21.75-3.73"/><path class="cls-3" d="M615.9,333c-7.12-2.23-14.13-4.42-21.22-6.47"/><line class="cls-3" x1="483.24" y1="73.68" x2="467.52" y2="88.36"/><line class="cls-3" x1="466.95" y1="56.69" x2="453.03" y2="73.12"/><path class="cls-3" d="M448.66,38.82q-5.87,9-11.82,18"/><path class="cls-3" d="M402.47-.83c-1.5,7.07-3.17,14.18-4.9,21.21"/><path class="cls-3" d="M426.66,19.18c-2.48,6.78-5,13.52-7.67,20.27"/><path class="cls-3" d="M377.53-20c-1.13,7.13-2.47,14.36-3.83,21.44"/><line class="cls-3" x1="498.9" y1="90.85" x2="481.59" y2="103.66"/><line class="cls-3" x1="515.54" y1="110.14" x2="496.87" y2="120.92"/><path class="cls-3" d="M553.14,157.49q-10.65,2.16-21.3,4.5"/><path class="cls-3" d="M534,133q-10.32,3.34-20.57,6.79"/><path class="cls-3" d="M572.1,182.21q-10.76,2-21.41,4"/><path class="cls-3" d="M591.14,209.11q-10.95.69-21.8,1.54"/><path class="cls-3" d="M610.33,238c-7.35-.41-14.64-.77-21.92-1.06"/><line class="cls-3" x1="515.32" y1="42.39" x2="499.59" y2="57.07"/><line class="cls-3" x1="499.02" y1="25.4" x2="485.1" y2="41.83"/><path class="cls-3" d="M480.74,7.53q-5.88,9-11.83,18"/><path class="cls-3" d="M458.73-12.11c-2.47,6.78-5,13.52-7.66,20.27"/><line class="cls-3" x1="530.97" y1="59.57" x2="513.66" y2="72.37"/><line class="cls-3" x1="547.61" y1="78.86" x2="528.94" y2="89.63"/><path class="cls-3" d="M585.21,126.2q-10.65,2.17-21.29,4.5"/><path class="cls-3" d="M566,101.67q-10.32,3.36-20.57,6.79"/><path class="cls-3" d="M604.17,150.92q-10.74,2-21.4,4"/><line class="cls-3" x1="547.39" y1="11.1" x2="531.67" y2="25.79"/><line class="cls-3" x1="531.1" y1="-5.88" x2="517.17" y2="10.55"/><line class="cls-3" x1="563.04" y1="28.28" x2="545.73" y2="41.08"/><line class="cls-3" x1="579.68" y1="47.57" x2="561.01" y2="58.34"/><path class="cls-3" d="M617.28,94.92Q606.65,97.08,596,99.41"/><path class="cls-3" d="M598.1,70.38q-10.32,3.36-20.56,6.79"/><line class="cls-3" x1="595.12" y1="-3.01" x2="577.81" y2="9.8"/><line class="cls-3" x1="611.76" y1="16.28" x2="593.09" y2="27.06"/></g><g class="cls-4"><path class="cls-5" d="M1.83,1051.89c3.77,6.45,7.35,13,11,19.5"/><g class="cls-6"><path class="cls-7" d="M544.61,1036.36c2,3.21,4,6.47,6,9.71s4,6.47,5.91,9.75"/><path class="cls-7" d="M514.34,1004.3l7,9q3.51,4.5,7,9"/><path class="cls-7" d="M483.17,973c5.31,5.47,10.64,10.91,15.88,16.44"/><path class="cls-7" d="M572.23,1004.94l7,9q3.53,4.48,7,9"/><path class="cls-7" d="M541.06,973.67c5.3,5.47,10.63,10.91,15.87,16.44"/><path class="cls-7" d="M599,974.3c5.3,5.47,10.63,10.92,15.87,16.44"/><path class="cls-7" d="M515.67,1036c2,3.21,4,6.47,6,9.72s4,6.46,5.91,9.74"/><path class="cls-7" d="M485.4,1004l7,9q3.52,4.5,7,9"/><path class="cls-7" d="M454.23,972.71c5.3,5.47,10.63,10.91,15.87,16.44"/><path class="cls-7" d="M573.56,1036.68c2,3.21,4,6.47,6,9.71s4,6.47,5.91,9.75"/><path class="cls-7" d="M543.28,1004.62l7,9q3.52,4.5,7,9"/><path class="cls-7" d="M512.12,973.35c5.3,5.47,10.63,10.91,15.87,16.44"/><path class="cls-7" d="M570,974c5.31,5.46,10.64,10.91,15.88,16.43"/><path class="cls-7" d="M23.63,1037.64c2,3.21,4,6.47,6,9.71s4,6.47,5.91,9.75"/><path class="cls-7" d="M-6.64,1005.58l7,9q3.53,4.5,7,9"/><path class="cls-7" d="M81.52,1038.27c2,3.22,4,6.48,6,9.72s4,6.47,5.91,9.75"/><path class="cls-7" d="M51.24,1006.22l7,9q3.53,4.49,7,9"/><path class="cls-7" d="M20.08,975c5.3,5.46,10.63,10.91,15.87,16.44"/><path class="cls-7" d="M139.4,1038.91c2,3.21,4,6.47,6,9.72s4,6.46,5.91,9.74"/><path class="cls-7" d="M109.13,1006.85l7,9q3.51,4.49,7,9"/><path class="cls-7" d="M78,975.58c5.31,5.47,10.64,10.91,15.88,16.44"/><path class="cls-7" d="M197.29,1039.55c2,3.21,4,6.47,6,9.71s4,6.47,5.91,9.75"/><path class="cls-7" d="M167,1007.49l7,9q3.52,4.5,7,9"/><path class="cls-7" d="M135.85,976.22c5.3,5.47,10.63,10.91,15.87,16.44"/><path class="cls-7" d="M255.18,1040.18c2,3.22,4,6.48,6,9.72s4,6.47,5.91,9.75"/><path class="cls-7" d="M224.9,1008.13l7,9q3.52,4.49,7,9"/><path class="cls-7" d="M193.74,976.86c5.3,5.47,10.63,10.91,15.87,16.44"/><path class="cls-7" d="M-5.31,1037.32c2,3.21,4,6.47,6,9.71s4,6.47,5.9,9.75"/><path class="cls-7" d="M52.57,1038c2,3.22,4,6.48,6,9.72s4,6.47,5.91,9.75"/><path class="cls-7" d="M22.3,1005.9l7,9q3.51,4.5,7,9"/><path class="cls-7" d="M-8.86,974.63C-3.56,980.1,1.77,985.54,7,991.07"/><path class="cls-7" d="M110.46,1038.59c2,3.22,4,6.47,6,9.72s4,6.46,5.91,9.74"/><path class="cls-7" d="M80.19,1006.54l7,9q3.52,4.49,7,9"/><path class="cls-7" d="M49,975.27c5.3,5.46,10.63,10.91,15.87,16.43"/><path class="cls-7" d="M168.35,1039.23c2,3.21,4,6.47,6,9.72s4,6.46,5.91,9.74"/><path class="cls-7" d="M138.07,1007.17l7,9q3.52,4.49,7,9"/><path class="cls-7" d="M106.91,975.9c5.3,5.47,10.63,10.91,15.87,16.44"/><path class="cls-7" d="M226.23,1039.87c2,3.21,4,6.47,6,9.71s4,6.47,5.91,9.75"/><path class="cls-7" d="M196,1007.81l7,9q3.52,4.5,7,9"/><path class="cls-7" d="M164.79,976.54c5.31,5.47,10.64,10.91,15.88,16.44"/><path class="cls-7" d="M284.12,1040.5c2,3.22,4,6.48,6,9.72s4,6.47,5.9,9.75"/><path class="cls-7" d="M253.85,1008.45l7,9q3.53,4.49,7,9"/><path class="cls-7" d="M222.68,977.18c5.3,5.46,10.63,10.91,15.87,16.43"/><path class="cls-7" d="M313.06,1040.82c2,3.21,4,6.47,6,9.72s4,6.46,5.91,9.74"/><path class="cls-7" d="M282.79,1008.77l7,9q3.53,4.49,7,9"/><path class="cls-7" d="M251.62,977.49c5.31,5.47,10.63,10.92,15.88,16.44"/><path class="cls-7" d="M342,1041.14c2,3.21,4,6.47,6,9.72s4,6.46,5.91,9.74"/><path class="cls-7" d="M311.73,1009.08l7,9q3.53,4.49,7,9"/><path class="cls-7" d="M280.57,977.81c5.3,5.47,10.63,10.91,15.87,16.44"/><path class="cls-7" d="M371,1041.46c2,3.21,4,6.47,6,9.71s4,6.47,5.9,9.75"/><path class="cls-7" d="M340.67,1009.4l7,9q3.53,4.5,7,9"/><path class="cls-7" d="M309.51,978.13c5.3,5.47,10.63,10.91,15.87,16.44"/><path class="cls-7" d="M399.89,1041.78c2,3.21,4,6.47,6,9.71s4,6.47,5.91,9.75"/><path class="cls-7" d="M369.62,1009.72l7,9q3.53,4.5,7,9"/><path class="cls-7" d="M338.45,978.45c5.31,5.47,10.63,10.91,15.87,16.44"/><path class="cls-7" d="M428.83,1042.09c2,3.22,4,6.48,6,9.72s4,6.47,5.91,9.75"/><path class="cls-7" d="M398.56,1010l7,9q3.51,4.5,7,9"/><path class="cls-7" d="M367.4,978.77c5.3,5.47,10.63,10.91,15.87,16.44"/><path class="cls-7" d="M457.78,1042.41c2,3.22,4,6.48,6,9.72s4,6.47,5.9,9.75"/><path class="cls-7" d="M427.5,1010.36l7,9q3.52,4.49,7,9"/><path class="cls-7" d="M396.34,979.09c5.3,5.46,10.63,10.91,15.87,16.44"/><path class="cls-7" d="M486.72,1042.73c2,3.22,4,6.47,6,9.72s4,6.46,5.91,9.74"/><path class="cls-7" d="M456.45,1010.68l7,9q3.52,4.49,7,9"/><path class="cls-7" d="M425.28,979.41c5.3,5.46,10.63,10.91,15.87,16.43"/></g></g></svg>