<?xml version="1.0" encoding="utf-8"?>
<!-- Generator: Adobe Illustrator 24.2.3, SVG Export Plug-In . SVG Version: 6.00 Build 0)  -->
<svg version="1.1" id="texture" xmlns="http://www.w3.org/2000/svg" xmlns:xlink="http://www.w3.org/1999/xlink" x="0px" y="0px"
	 viewBox="0 0 600 701" style="enable-background:new 0 0 600 701;" xml:space="preserve">
<style type="text/css">
	.st0{clip-path:url(#SVGID_2_);}
	.st1{fill:none;stroke:#FF4D34;stroke-width:0.75;stroke-linecap:square;stroke-miterlimit:10; }
	.st2{clip-path:url(#SVGID_4_);}
	.st3{fill:none;stroke:#FF4D34;stroke-width:0.5;stroke-linecap:square;stroke-miterlimit:10;}
	.st4{opacity:0.6;}
	.st5{fill:none;stroke:#FFFFFF;stroke-width:0.75;stroke-linecap:square;stroke-miterlimit:10;}

</style>
<g>
	<defs>
		<rect id="SVGID_1_" x="2" width="598" height="1065.6"/>
	</defs>
	<clipPath id="SVGID_2_">
		<use xlink:href="#SVGID_1_"  style="overflow:visible;"/>
	</clipPath>
	<g class="st0">
		<line class="st1" x1="355" y1="198.8" x2="339.2" y2="213.5"/>
		<line class="st1" x1="338.7" y1="181.8" x2="324.7" y2="198.3"/>
		<path class="st1" d="M320.4,164c-3.9,6-7.9,12-11.8,18"/>
		<path class="st1" d="M274.2,124.3c-1.5,7.1-3.2,14.2-4.9,21.2"/>
		<path class="st1" d="M298.4,144.3c-2.5,6.8-5,13.5-7.7,20.3"/>
		<path class="st1" d="M249.2,105.2c-1.1,7.1-2.5,14.4-3.8,21.4"/>
		<path class="st1" d="M221.5,86.8c0,7.3-0.3,14.6-0.7,21.9"/>
		<path class="st1" d="M191.3,69.3c0.5,3.7,1,7.3,1.4,10.9c0.4,3.6,0.8,7.3,1.2,10.9"/>
		<path class="st1" d="M158.6,53.1c2.1,7.2,4.1,14.2,5.9,21.3"/>
		<path class="st1" d="M123.7,38.3l2.3,5l2.3,5.1c1.5,3.4,2.9,6.8,4.4,10.2"/>
		<polyline class="st1" points="86.7,25.3 92.7,34.7 95.7,39.4 98.6,44.2 		"/>
		<path class="st1" d="M47.9,14.1c5,5.6,9.8,11.4,14.5,17.1"/>
		<path class="st1" d="M7.7,4.7c2.8,2.4,5.7,5,8.5,7.5s5.6,5,8.3,7.6"/>
		<line class="st1" x1="370.6" y1="216" x2="353.3" y2="228.8"/>
		<line class="st1" x1="387.3" y1="235.3" x2="368.6" y2="246.1"/>
		<path class="st1" d="M424.8,282.6c-7.1,1.4-14.2,2.9-21.3,4.5"/>
		<path class="st1" d="M405.7,258.1c-6.9,2.2-13.7,4.5-20.6,6.8"/>
		<path class="st1" d="M443.8,307.4c-7.2,1.3-14.3,2.7-21.4,4"/>
		<path class="st1" d="M462.8,334.3c-7.3,0.5-14.6,1-21.8,1.5"/>
		<path class="st1" d="M482,363.1c-7.3-0.4-14.6-0.8-21.9-1.1"/>
		<path class="st1" d="M501.1,394c-7.3-1.3-14.5-2.6-21.8-3.7"/>
		<path class="st1" d="M519.7,426.8c-7.1-2.2-14.1-4.4-21.2-6.5"/>
		<path class="st1" d="M537.5,461.7c-6.8-3.2-13.6-6.2-20.3-9.2"/>
		<path class="st1" d="M554,498.5c-3.1-2.1-6.3-4.1-9.5-6l-9.5-5.9"/>
		<path class="st1" d="M568.9,537.1c-2.9-2.5-5.7-5-8.5-7.4l-8.7-7.2"/>
		<path class="st1" d="M581.7,577.4l-7.5-8.5c-1.3-1.4-2.5-2.8-3.7-4.2l-3.8-4.2"/>
		<path class="st1" d="M592,619.2c-1.9-3.3-4.1-6.4-6.1-9.6l-6.2-9.5"/>
		<polyline class="st1" points="599.5,662.1 595,651.6 590.2,641.3 		"/>
		<path class="st1" d="M603.8,705.8c-0.9-3.7-2-7.4-2.9-11.1s-1.9-7.3-3.1-11"/>
		<line class="st1" x1="387" y1="167.5" x2="371.3" y2="182.2"/>
		<line class="st1" x1="370.7" y1="150.6" x2="356.8" y2="167"/>
		<path class="st1" d="M352.5,132.7c-3.9,6-7.9,12-11.8,18"/>
		<path class="st1" d="M306.3,93c-1.5,7.1-3.2,14.2-4.9,21.2"/>
		<path class="st1" d="M330.4,113c-2.5,6.8-5,13.5-7.7,20.3"/>
		<path class="st1" d="M281.3,73.9c-1.1,7.1-2.5,14.3-3.8,21.4"/>
		<path class="st1" d="M253.6,55.5c-0.1,7.3-0.3,14.6-0.7,21.9"/>
		<path class="st1" d="M223.4,38c0.5,3.6,1,7.3,1.4,10.9c0.4,3.6,0.8,7.3,1.2,10.9"/>
		<path class="st1" d="M190.7,21.8c2.1,7.1,4.1,14.2,5.9,21.3"/>
		<path class="st1" d="M155.7,7.1l2.3,5l2.3,5.1c1.5,3.4,3,6.8,4.4,10.2"/>
		<polyline class="st1" points="118.8,-6 124.8,3.4 127.8,8.1 130.6,12.9 		"/>
		<path class="st1" d="M80-17.2c5,5.6,9.8,11.4,14.5,17.1"/>
		<line class="st1" x1="402.7" y1="184.7" x2="385.4" y2="197.5"/>
		<line class="st1" x1="419.3" y1="204" x2="400.6" y2="214.8"/>
		<path class="st1" d="M456.9,251.4c-7.1,1.4-14.2,2.9-21.3,4.5"/>
		<path class="st1" d="M437.7,226.8c-6.9,2.2-13.7,4.5-20.6,6.8"/>
		<path class="st1" d="M475.9,276.1c-7.2,1.3-14.3,2.7-21.4,4"/>
		<path class="st1" d="M494.9,303c-7.3,0.5-14.6,1-21.8,1.5"/>
		<path class="st1" d="M514.1,331.8c-7.4-0.4-14.6-0.8-21.9-1.1"/>
		<path class="st1" d="M533.2,362.7c-7.3-1.3-14.5-2.6-21.7-3.7"/>
		<path class="st1" d="M551.8,395.5c-7.1-2.2-14.1-4.4-21.2-6.5"/>
		<path class="st1" d="M569.5,430.4c-6.8-3.2-13.6-6.2-20.3-9.2"/>
		<path class="st1" d="M586.1,467.2c-3.1-2.1-6.3-4.1-9.5-6l-9.5-5.9"/>
		<path class="st1" d="M600.9,505.8c-2.9-2.5-5.6-5-8.5-7.4l-8.7-7.1"/>
		<path class="st1" d="M613.8,546.1l-7.5-8.5c-1.3-1.4-2.5-2.8-3.7-4.2l-3.8-4.2"/>
		<line class="st1" x1="419.1" y1="136.3" x2="403.4" y2="150.9"/>
		<line class="st1" x1="402.8" y1="119.3" x2="388.9" y2="135.7"/>
		<path class="st1" d="M384.5,101.4c-3.9,6-7.9,12-11.8,18"/>
		<path class="st1" d="M338.3,61.7c-1.5,7.1-3.2,14.2-4.9,21.2"/>
		<path class="st1" d="M362.5,81.8c-2.5,6.8-5,13.5-7.7,20.3"/>
		<path class="st1" d="M313.4,42.6c-1.1,7.1-2.5,14.4-3.8,21.4"/>
		<path class="st1" d="M285.7,24.2c0,7.3-0.3,14.6-0.7,21.9"/>
		<path class="st1" d="M255.4,6.8c0.5,3.6,1,7.3,1.4,10.9c0.5,3.6,0.8,7.3,1.2,10.9"/>
		<path class="st1" d="M222.8-9.5c2.1,7.2,4.1,14.2,5.9,21.3"/>
		<line class="st1" x1="434.8" y1="153.4" x2="417.4" y2="166.2"/>
		<line class="st1" x1="451.4" y1="172.7" x2="432.7" y2="183.5"/>
		<path class="st1" d="M489,220.1c-7.1,1.4-14.2,2.9-21.3,4.5"/>
		<path class="st1" d="M469.8,195.5c-6.9,2.2-13.7,4.5-20.6,6.8"/>
		<path class="st1" d="M508,244.8c-7.2,1.3-14.3,2.7-21.4,4"/>
		<path class="st1" d="M527,271.7c-7.3,0.5-14.6,1-21.8,1.5"/>
		<path class="st1" d="M546.2,300.5c-7.3-0.4-14.6-0.8-21.9-1"/>
		<path class="st1" d="M565.2,331.4c-7.3-1.3-14.5-2.6-21.7-3.7"/>
		<path class="st1" d="M583.8,364.3c-7.1-2.2-14.1-4.4-21.2-6.5"/>
		<path class="st1" d="M601.6,399.1c-6.8-3.1-13.6-6.2-20.3-9.2"/>
		<path class="st1" d="M618.1,435.9c-3.1-2.1-6.3-4.1-9.5-6l-9.5-5.9"/>
		<line class="st1" x1="451.2" y1="105" x2="435.5" y2="119.7"/>
		<line class="st1" x1="434.9" y1="88" x2="421" y2="104.4"/>
		<path class="st1" d="M416.6,70.1c-3.9,6-7.9,12-11.8,18"/>
		<path class="st1" d="M370.4,30.5c-1.5,7.1-3.2,14.2-4.9,21.2"/>
		<path class="st1" d="M394.6,50.5c-2.5,6.8-5,13.5-7.7,20.3"/>
		<path class="st1" d="M345.5,11.3c-1.1,7.1-2.5,14.4-3.8,21.4"/>
		<path class="st1" d="M317.8-7.1c0,7.3-0.3,14.6-0.7,21.9"/>
		<line class="st1" x1="466.8" y1="122.1" x2="449.5" y2="134.9"/>
		<line class="st1" x1="483.5" y1="141.4" x2="464.8" y2="152.2"/>
		<path class="st1" d="M521.1,188.8c-7.1,1.4-14.2,2.9-21.3,4.5"/>
		<path class="st1" d="M501.9,164.2c-6.9,2.2-13.7,4.5-20.6,6.8"/>
		<path class="st1" d="M540,213.5c-7.2,1.3-14.3,2.7-21.4,4"/>
		<path class="st1" d="M559.1,240.4c-7.3,0.5-14.6,1-21.8,1.6"/>
		<path class="st1" d="M578.3,269.3c-7.3-0.4-14.6-0.8-21.9-1.1"/>
		<path class="st1" d="M597.3,300.1c-7.3-1.3-14.5-2.6-21.8-3.7"/>
		<path class="st1" d="M615.9,333c-7.1-2.2-14.1-4.4-21.2-6.5"/>
		<line class="st1" x1="483.2" y1="73.7" x2="467.5" y2="88.4"/>
		<line class="st1" x1="467" y1="56.7" x2="453" y2="73.1"/>
		<path class="st1" d="M448.7,38.8c-3.9,6-7.9,12-11.8,18"/>
		<path class="st1" d="M402.5-0.8c-1.5,7.1-3.2,14.2-4.9,21.2"/>
		<path class="st1" d="M426.7,19.2c-2.5,6.8-5,13.5-7.7,20.3"/>
		<path class="st1" d="M377.5-20c-1.1,7.1-2.5,14.4-3.8,21.4"/>
		<line class="st1" x1="498.9" y1="90.8" x2="481.6" y2="103.7"/>
		<line class="st1" x1="515.5" y1="110.1" x2="496.9" y2="120.9"/>
		<path class="st1" d="M553.1,157.5c-7.1,1.4-14.2,2.9-21.3,4.5"/>
		<path class="st1" d="M534,133c-6.9,2.2-13.7,4.5-20.6,6.8"/>
		<path class="st1" d="M572.1,182.2c-7.2,1.3-14.3,2.7-21.4,4"/>
		<path class="st1" d="M591.1,209.1c-7.3,0.5-14.6,1-21.8,1.5"/>
		<path class="st1" d="M610.3,238c-7.3-0.4-14.6-0.8-21.9-1.1"/>
		<line class="st1" x1="515.3" y1="42.4" x2="499.6" y2="57.1"/>
		<line class="st1" x1="499" y1="25.4" x2="485.1" y2="41.8"/>
		<path class="st1" d="M480.7,7.5c-3.9,6-7.9,12-11.8,18"/>
		<path class="st1" d="M458.7-12.1c-2.5,6.8-5,13.5-7.7,20.3"/>
		<line class="st1" x1="531" y1="59.6" x2="513.7" y2="72.4"/>
		<line class="st1" x1="547.6" y1="78.9" x2="528.9" y2="89.6"/>
		<path class="st1" d="M585.2,126.2c-7.1,1.4-14.2,2.9-21.3,4.5"/>
		<path class="st1" d="M566,101.7c-6.9,2.2-13.7,4.5-20.6,6.8"/>
		<path class="st1" d="M604.2,150.9c-7.2,1.3-14.3,2.7-21.4,4"/>
		<line class="st1" x1="547.4" y1="11.1" x2="531.7" y2="25.8"/>
		<line class="st1" x1="531.1" y1="-5.9" x2="517.2" y2="10.6"/>
		<line class="st1" x1="563" y1="28.3" x2="545.7" y2="41.1"/>
		<line class="st1" x1="579.7" y1="47.6" x2="561" y2="58.3"/>
		<path class="st1" d="M617.3,94.9c-7.1,1.4-14.2,2.9-21.3,4.5"/>
		<path class="st1" d="M598.1,70.4c-6.9,2.2-13.7,4.5-20.6,6.8"/>
		<line class="st1" x1="595.1" y1="-3" x2="577.8" y2="9.8"/>
		<line class="st1" x1="611.8" y1="16.3" x2="593.1" y2="27.1"/>
	</g>
</g>
<g>
	<defs>
		<circle id="SVGID_3_" cx="559.5" cy="1360.1" r="380.5"/>
	</defs>
	<clipPath id="SVGID_4_">
		<use xlink:href="#SVGID_3_"  style="overflow:visible;"/>
	</clipPath>
	<g class="st2">
		<path class="st3" d="M1.8,1051.9c3.8,6.4,7.4,13,11,19.5"/>
		<g class="st4">
			<path class="st5" d="M544.6,1036.4c2,3.2,4,6.5,6,9.7s4,6.5,5.9,9.8"/>
			<path class="st5" d="M514.3,1004.3l7,9c2.3,3,4.7,6,7,9"/>
			<path class="st5" d="M483.2,973c5.3,5.5,10.6,10.9,15.9,16.4"/>
			<path class="st5" d="M572.2,1004.9l7,9c2.4,3,4.7,6,7,9"/>
			<path class="st5" d="M541.1,973.7c5.3,5.5,10.6,10.9,15.9,16.4"/>
			<path class="st5" d="M599,974.3c5.3,5.5,10.6,10.9,15.9,16.4"/>
			<path class="st5" d="M515.7,1036c2,3.2,4,6.5,6,9.7s4,6.5,5.9,9.7"/>
			<path class="st5" d="M485.4,1004l7,9c2.3,3,4.7,6,7,9"/>
			<path class="st5" d="M454.2,972.7c5.3,5.5,10.6,10.9,15.9,16.4"/>
			<path class="st5" d="M573.6,1036.7c2,3.2,4,6.5,6,9.7s4,6.5,5.9,9.8"/>
			<path class="st5" d="M543.3,1004.6l7,9c2.3,3,4.7,6,7,9"/>
			<path class="st5" d="M512.1,973.3c5.3,5.5,10.6,10.9,15.9,16.4"/>
			<path class="st5" d="M570,974c5.3,5.5,10.6,10.9,15.9,16.4"/>
			<path class="st5" d="M23.6,1037.6c2,3.2,4,6.5,6,9.7s4,6.5,5.9,9.8"/>
			<path class="st5" d="M-6.6,1005.6l7,9c2.4,3,4.7,6,7,9"/>
			<path class="st5" d="M81.5,1038.3c2,3.2,4,6.5,6,9.7s4,6.5,5.9,9.8"/>
			<path class="st5" d="M51.2,1006.2l7,9c2.4,3,4.7,6,7,9"/>
			<path class="st5" d="M20.1,975c5.3,5.5,10.6,10.9,15.9,16.4"/>
			<path class="st5" d="M139.4,1038.9c2,3.2,4,6.5,6,9.7s4,6.5,5.9,9.7"/>
			<path class="st5" d="M109.1,1006.8l7,9c2.3,3,4.7,6,7,9"/>
			<path class="st5" d="M78,975.6c5.3,5.5,10.6,10.9,15.9,16.4"/>
			<path class="st5" d="M197.3,1039.6c2,3.2,4,6.5,6,9.7s4,6.5,5.9,9.8"/>
			<path class="st5" d="M167,1007.5l7,9c2.3,3,4.7,6,7,9"/>
			<path class="st5" d="M135.9,976.2c5.3,5.5,10.6,10.9,15.9,16.4"/>
			<path class="st5" d="M255.2,1040.2c2,3.2,4,6.5,6,9.7s4,6.5,5.9,9.8"/>
			<path class="st5" d="M224.9,1008.1l7,9c2.3,3,4.7,6,7,9"/>
			<path class="st5" d="M193.7,976.9c5.3,5.5,10.6,10.9,15.9,16.4"/>
			<path class="st5" d="M-5.3,1037.3c2,3.2,4,6.5,6,9.7s4,6.5,5.9,9.8"/>
			<path class="st5" d="M52.6,1038c2,3.2,4,6.5,6,9.7s4,6.5,5.9,9.8"/>
			<path class="st5" d="M22.3,1005.9l7,9c2.3,3,4.7,6,7,9"/>
			<path class="st5" d="M-8.9,974.6c5.3,5.5,10.6,10.9,15.9,16.4"/>
			<path class="st5" d="M110.5,1038.6c2,3.2,4,6.5,6,9.7s4,6.5,5.9,9.7"/>
			<path class="st5" d="M80.2,1006.5l7,9c2.3,3,4.7,6,7,9"/>
			<path class="st5" d="M49,975.3c5.3,5.5,10.6,10.9,15.9,16.4"/>
			<path class="st5" d="M168.4,1039.2c2,3.2,4,6.5,6,9.7s4,6.5,5.9,9.7"/>
			<path class="st5" d="M138.1,1007.2l7,9c2.3,3,4.7,6,7,9"/>
			<path class="st5" d="M106.9,975.9c5.3,5.5,10.6,10.9,15.9,16.4"/>
			<path class="st5" d="M226.2,1039.9c2,3.2,4,6.5,6,9.7s4,6.5,5.9,9.8"/>
			<path class="st5" d="M196,1007.8l7,9c2.3,3,4.7,6,7,9"/>
			<path class="st5" d="M164.8,976.5c5.3,5.5,10.6,10.9,15.9,16.4"/>
			<path class="st5" d="M284.1,1040.5c2,3.2,4,6.5,6,9.7s4,6.5,5.9,9.8"/>
			<path class="st5" d="M253.9,1008.5l7,9c2.4,3,4.7,6,7,9"/>
			<path class="st5" d="M222.7,977.2c5.3,5.5,10.6,10.9,15.9,16.4"/>
			<path class="st5" d="M313.1,1040.8c2,3.2,4,6.5,6,9.7s4,6.5,5.9,9.7"/>
			<path class="st5" d="M282.8,1008.8l7,9c2.4,3,4.7,6,7,9"/>
			<path class="st5" d="M251.6,977.5c5.3,5.5,10.6,10.9,15.9,16.4"/>
			<path class="st5" d="M342,1041.1c2,3.2,4,6.5,6,9.7s4,6.5,5.9,9.7"/>
			<path class="st5" d="M311.7,1009.1l7,9c2.4,3,4.7,6,7,9"/>
			<path class="st5" d="M280.6,977.8c5.3,5.5,10.6,10.9,15.9,16.4"/>
			<path class="st5" d="M371,1041.5c2,3.2,4,6.5,6,9.7s4,6.5,5.9,9.8"/>
			<path class="st5" d="M340.7,1009.4l7,9c2.4,3,4.7,6,7,9"/>
			<path class="st5" d="M309.5,978.1c5.3,5.5,10.6,10.9,15.9,16.4"/>
			<path class="st5" d="M399.9,1041.8c2,3.2,4,6.5,6,9.7s4,6.5,5.9,9.8"/>
			<path class="st5" d="M369.6,1009.7l7,9c2.4,3,4.7,6,7,9"/>
			<path class="st5" d="M338.5,978.5c5.3,5.5,10.6,10.9,15.9,16.4"/>
			<path class="st5" d="M428.8,1042.1c2,3.2,4,6.5,6,9.7s4,6.5,5.9,9.8"/>
			<path class="st5" d="M398.6,1010l7,9c2.3,3,4.7,6,7,9"/>
			<path class="st5" d="M367.4,978.8c5.3,5.5,10.6,10.9,15.9,16.4"/>
			<path class="st5" d="M457.8,1042.4c2,3.2,4,6.5,6,9.7s4,6.5,5.9,9.8"/>
			<path class="st5" d="M427.5,1010.4l7,9c2.3,3,4.7,6,7,9"/>
			<path class="st5" d="M396.3,979.1c5.3,5.5,10.6,10.9,15.9,16.4"/>
			<path class="st5" d="M486.7,1042.7c2,3.2,4,6.5,6,9.7s4,6.5,5.9,9.7"/>
			<path class="st5" d="M456.5,1010.7l7,9c2.3,3,4.7,6,7,9"/>
			<path class="st5" d="M425.3,979.4c5.3,5.5,10.6,10.9,15.9,16.4"/>
		</g>
	</g>
</g>
</svg>
